# xmcd
#
# Track frame offsets:
#	150
#	14325
#	30528
#	48396
#	64971
#	81107
#	96720
#	111342
#	125566
#	143630
#	161105
#	179728
#	197837
#	210553
#
# Disc length: 3044 seconds
#
# Revision: 1
# Processed by: cddbd v1.5.2PL0 Copyright (c) Steve Scherf et al.
# Submitted via: audiograbber 1.83.01
#
DISCID=d20be20e
DTITLE=Mark Wills - Familiar Stranger
DYEAR=2008
DGENRE=Country
TTITLE0=Days Of Thunder
TTITLE1=The Things We Forget
TTITLE2=Entertaining Angels
TTITLE3=Closer
TTITLE4=Panama City
TTITLE5=Take It All Out On Me
TTITLE6=Rednecks Anonymous
TTITLE7=The Likes Of You
TTITLE8=Crazy White Boy
TTITLE9=Her Kiss
TTITLE10=All The Crap I Do
TTITLE11=Hank
TTITLE12=How Beautiful
TTITLE13=Second 16
EXTD=
EXTT0=
EXTT1=
EXTT2=
EXTT3=
EXTT4=
EXTT5=
EXTT6=
EXTT7=
EXTT8=
EXTT9=
EXTT10=
EXTT11=
EXTT12=
EXTT13=
PLAYORDER=
